<svg xmlns="http://www.w3.org/2000/svg" viewBox="0 0 100 100">
  <!-- Sky gradient background -->
  <defs>
    <linearGradient id="skyGradient" x1="0%" y1="0%" x2="0%" y2="100%">
      <stop offset="0%" style="stop-color:#87CEEB;stop-opacity:1" />
      <stop offset="100%" style="stop-color:#4A90E2;stop-opacity:1" />
    </linearGradient>
    <radialGradient id="sunGradient">
      <stop offset="0%" style="stop-color:#FFF59D;stop-opacity:1" />
      <stop offset="100%" style="stop-color:#FFA726;stop-opacity:1" />
    </radialGradient>
  </defs>

  <!-- Background circle -->
  <circle cx="50" cy="50" r="48" fill="url(#skyGradient)" />

  <!-- Sun -->
  <circle cx="30" cy="30" r="12" fill="url(#sunGradient)">
    <animate attributeName="r" values="12;14;12" dur="3s" repeatCount="indefinite"/>
  </circle>

  <!-- Sun rays -->
  <g transform="translate(30, 30)">
    <path d="M 0,-18 L 0,-22" stroke="#FFA726" stroke-width="2" stroke-linecap="round"/>
    <path d="M 13,-13 L 16,-16" stroke="#FFA726" stroke-width="2" stroke-linecap="round"/>
    <path d="M 18,0 L 22,0" stroke="#FFA726" stroke-width="2" stroke-linecap="round"/>
    <path d="M 13,13 L 16,16" stroke="#FFA726" stroke-width="2" stroke-linecap="round"/>
    <path d="M 0,18 L 0,22" stroke="#FFA726" stroke-width="2" stroke-linecap="round"/>
    <path d="M -13,13 L -16,16" stroke="#FFA726" stroke-width="2" stroke-linecap="round"/>
    <path d="M -18,0 L -22,0" stroke="#FFA726" stroke-width="2" stroke-linecap="round"/>
    <path d="M -13,-13 L -16,-16" stroke="#FFA726" stroke-width="2" stroke-linecap="round"/>
  </g>

  <!-- Clouds -->
  <g transform="translate(55, 55)">
    <ellipse cx="0" cy="0" rx="15" ry="10" fill="white" opacity="0.9"/>
    <ellipse cx="10" cy="-2" rx="12" ry="10" fill="white" opacity="0.9"/>
    <ellipse cx="20" cy="0" rx="15" ry="10" fill="white" opacity="0.9"/>
    <ellipse cx="5" cy="5" rx="18" ry="8" fill="white" opacity="0.9"/>
  </g>

  <!-- Small cloud -->
  <g transform="translate(65, 35)" opacity="0.7">
    <ellipse cx="0" cy="0" rx="8" ry="5" fill="white"/>
    <ellipse cx="6" cy="0" rx="7" ry="5" fill="white"/>
  </g>
</svg>